<svg width="185" height="76" viewBox="0 0 185 76" fill="none" xmlns="http://www.w3.org/2000/svg">
<g clip-path="url(#clip0_5_13)">
<path d="M11.8383 54H5.0543V31.0027L4.00897 28.9973H11.8597L15.785 37.104L19.5397 45.1893L18.4943 35.696V28.9973H25.2997V54H18.793L13.7157 44.1227L10.5797 37.936L11.8383 46.128V54ZM28.414 54V40.1973L27.134 39.408V37.1253L31.7207 35.8667H35.2833V54H28.414ZM31.5073 33.904L28.0087 30.384V29.6373L31.5073 26.1387H32.318L35.966 29.6373V30.384L32.318 33.904H31.5073ZM52.4985 52.2293L52.3065 52.464C52.1785 52.6062 51.9509 52.7911 51.6238 53.0187C51.3109 53.232 50.9269 53.4524 50.4718 53.68C50.0309 53.8933 49.4336 54.0711 48.6798 54.2133C47.9403 54.3698 47.1438 54.448 46.2905 54.448C43.4034 54.448 41.1918 53.6018 39.6558 51.9093C38.1341 50.2169 37.3732 47.9769 37.3732 45.1893C37.3732 43.6818 37.6078 42.3093 38.0772 41.072C38.5465 39.8347 39.1865 38.8107 39.9972 38C40.8221 37.1751 41.7821 36.5422 42.8772 36.1013C43.9865 35.6462 45.1812 35.4187 46.4612 35.4187C48.9358 35.4187 50.8558 36.0089 52.2212 37.1893C52.5198 37.488 52.6692 37.6373 52.6692 37.6373L52.3492 42.6507L49.3198 42.672L48.1038 39.408C47.9901 39.3796 47.8336 39.3653 47.6345 39.3653C46.3403 39.3653 45.4443 39.8133 44.9465 40.7093C44.4629 41.5911 44.2212 43.1271 44.2212 45.3173C44.2212 46.2702 44.2994 47.088 44.4558 47.7707C44.6123 48.4391 44.7901 48.944 44.9892 49.2853C45.1883 49.6124 45.4514 49.8684 45.7785 50.0533C46.1198 50.2382 46.3972 50.3449 46.6105 50.3733C46.8238 50.4018 47.0869 50.416 47.3998 50.416C48.1109 50.416 48.8363 50.3307 49.5758 50.16C50.3296 49.9893 50.9483 49.712 51.4318 49.328L52.4985 52.2293ZM64.3677 42.9707C64.3677 41.1644 64.2752 39.8844 64.0903 39.1307C63.9054 38.3769 63.5641 38 63.0663 38C62.6397 38 62.2912 38.0782 62.021 38.2347C61.7508 38.3769 61.5517 38.6116 61.4237 38.9387C61.2957 39.2516 61.2103 39.5787 61.1677 39.92C61.1392 40.2471 61.125 40.6667 61.125 41.1787V42.9707H64.3677ZM62.661 54.448C61.0681 54.448 59.6814 54.2062 58.501 53.7227C57.3348 53.2391 56.4103 52.5636 55.7277 51.696C55.0592 50.8284 54.5686 49.8542 54.2557 48.7733C53.9428 47.6782 53.7863 46.4622 53.7863 45.1253C53.7863 41.9396 54.597 39.5289 56.2183 37.8933C57.8397 36.2578 60.1081 35.44 63.0237 35.44C65.8254 35.44 67.8308 36.1013 69.0397 37.424C70.2486 38.7324 70.853 40.8444 70.853 43.76V46.128H61.1037V46.5333C61.1037 47.3724 61.189 48.0622 61.3597 48.6027C61.5446 49.1431 61.8077 49.5413 62.149 49.7973C62.4903 50.0533 62.8388 50.224 63.1943 50.3093C63.5499 50.3947 63.9837 50.4373 64.4957 50.4373C64.9934 50.4373 65.5268 50.3733 66.0957 50.2453C66.6788 50.1173 67.2619 49.9182 67.845 49.648C68.4423 49.3778 68.9401 49.0578 69.3383 48.688L70.597 50.8427C70.0708 51.696 69.2957 52.4142 68.2717 52.9973C67.2619 53.5662 66.2877 53.9502 65.349 54.1493C64.4103 54.3484 63.5143 54.448 62.661 54.448ZM88.1613 51.7387C86.3551 53.5449 84.2076 54.448 81.7187 54.448C79.9551 54.448 78.4262 54.1422 77.132 53.5307C75.852 52.9191 74.8351 52.0373 74.0813 50.8853C73.3276 49.7333 72.7729 48.4178 72.4173 46.9387C72.076 45.4596 71.9053 43.7742 71.9053 41.8827C71.9053 40.4747 71.9764 39.2089 72.1187 38.0853C72.2751 36.9618 72.524 35.888 72.8653 34.864C73.2067 33.84 73.676 32.9582 74.2733 32.2187C74.8707 31.4649 75.6031 30.8107 76.4707 30.256C77.3382 29.7013 78.3907 29.2889 79.628 29.0187C80.8653 28.7342 82.2733 28.592 83.852 28.592C84.5631 28.592 85.2387 28.6347 85.8787 28.72C86.5329 28.8053 87.0876 28.912 87.5427 29.04C87.9978 29.1538 88.4244 29.3031 88.8227 29.488C89.2351 29.6587 89.5551 29.8151 89.7827 29.9573C90.0244 30.0853 90.2449 30.2276 90.444 30.384C90.6431 30.5404 90.764 30.6471 90.8067 30.704C90.8636 30.7609 90.9062 30.8036 90.9347 30.832L90.6147 35.7387H86.732L85.516 32.9013C85.2031 32.7307 84.6982 32.6453 84.0013 32.6453C83.4324 32.6453 82.9631 32.6951 82.5933 32.7947C82.2236 32.8942 81.8538 33.1076 81.484 33.4347C81.1284 33.7476 80.844 34.2098 80.6307 34.8213C80.4316 35.4187 80.268 36.2364 80.14 37.2747C80.012 38.2987 79.948 39.5502 79.948 41.0293C79.948 44.1156 80.1116 46.4053 80.4387 47.8987C80.78 49.392 81.4556 50.1387 82.4653 50.1387C82.9631 50.1387 83.3827 50.096 83.724 50.0107C84.0653 49.9111 84.3853 49.7404 84.684 49.4987C84.9827 49.2427 85.2031 48.8729 85.3453 48.3893C85.4876 47.8916 85.5587 47.2587 85.5587 46.4907V44.3147L82.7427 43.6747V39.3227H92.236L92.2147 54H88.4173L88.1613 51.7387ZM103.348 61.3387C101.883 61.3387 100.504 61.1253 99.2095 60.6987C97.9153 60.272 96.9695 59.696 96.3722 58.9707L97.4815 56.6667C98.3064 57.136 99.6148 57.3707 101.407 57.3707C101.976 57.3707 102.466 57.3067 102.879 57.1787C103.291 57.0507 103.661 56.8231 103.988 56.496C104.315 56.1831 104.564 55.7351 104.735 55.152C104.905 54.5689 104.998 53.8507 105.012 52.9973V51.1627L104.799 51.504C104.657 51.7316 104.436 52.0089 104.137 52.336C103.853 52.6489 103.526 52.9689 103.156 53.296C102.786 53.6089 102.331 53.8791 101.791 54.1067C101.265 54.3342 100.724 54.448 100.169 54.448C98.0504 54.448 96.5571 53.8578 95.6895 52.6773C94.8219 51.4827 94.3882 49.4773 94.3882 46.6613V39.088L93.6202 38.32V35.8667H101.385V48.0053C101.385 48.6596 101.485 49.1431 101.684 49.456C101.898 49.7547 102.317 49.904 102.943 49.904C103.128 49.904 103.313 49.8756 103.497 49.8187C103.682 49.7476 103.86 49.6551 104.031 49.5413C104.216 49.4276 104.408 49.2853 104.607 49.1147V39.088L103.434 38.32V35.8667H111.562V51.504C111.562 54.6471 110.893 57.072 109.556 58.7787C108.219 60.4853 106.15 61.3387 103.348 61.3387ZM121.305 54H114.414V40.1973L113.134 39.408V37.1253L117.721 35.8667H121.347V38.6187C121.418 38.5191 121.518 38.3911 121.646 38.2347C121.788 38.064 122.044 37.8009 122.414 37.4453C122.784 37.0898 123.161 36.7769 123.545 36.5067C123.943 36.2364 124.419 35.9947 124.974 35.7813C125.543 35.5538 126.105 35.44 126.659 35.44C128.082 35.44 129.17 35.7102 129.923 36.2507C130.677 36.7911 131.21 37.6729 131.523 38.896C132.007 38.0569 132.746 37.2747 133.742 36.5493C134.752 35.8098 135.861 35.44 137.07 35.44C138.407 35.44 139.445 35.6747 140.185 36.144C140.938 36.5991 141.486 37.3813 141.827 38.4907C142.169 39.6 142.339 41.1644 142.339 43.184V54H135.406V42.5653C135.406 41.9396 135.257 41.4489 134.958 41.0933C134.659 40.7378 134.204 40.56 133.593 40.56C133.18 40.56 132.618 40.9013 131.907 41.584C131.95 42.2667 131.971 43.0062 131.971 43.8027V54H124.931V42.5653C124.974 41.2284 124.405 40.56 123.225 40.56C123.139 40.56 123.054 40.5671 122.969 40.5813C122.898 40.5956 122.826 40.6098 122.755 40.624C122.698 40.6382 122.627 40.6667 122.542 40.7093C122.471 40.7378 122.407 40.7662 122.35 40.7947C122.293 40.8089 122.229 40.8444 122.158 40.9013C122.087 40.944 122.03 40.9796 121.987 41.008C121.945 41.0364 121.881 41.0862 121.795 41.1573C121.724 41.2142 121.667 41.2569 121.625 41.2853C121.596 41.3138 121.539 41.3636 121.454 41.4347C121.383 41.4916 121.333 41.5342 121.305 41.5627V54Z" fill="#EFEB00"/>
<mask id="mask0_5_13" style="mask-type:luminance" maskUnits="userSpaceOnUse" x="100" y="-8" width="85" height="84">
<path d="M101 14.2954L121.737 75.6389L184.732 54.3433L163.994 -7.00019L101 14.2954Z" fill="white"/>
</mask>
<g mask="url(#mask0_5_13)">
<path d="M130.123 15.0625L120.196 28.2197L115.769 25.0501L125.696 11.8929L130.123 15.0625Z" fill="#EFEB00"/>
<path d="M138.417 17.6239L133.454 24.2025L155.587 40.0506L160.55 33.4721L164.977 36.6416L151.741 54.1848L147.314 51.0151L152.278 44.4363L130.145 28.5883L125.181 35.167L120.755 31.9974L133.991 14.4543L138.417 17.6239Z" fill="#EFEB00"/>
<path d="M122.387 16.2787L117.961 13.1091L114.652 17.495L119.078 20.6646L122.387 16.2787Z" fill="#EFEB00"/>
<path d="M165.536 40.4193L155.608 53.5766L160.035 56.7463L169.962 43.5888L165.536 40.4193Z" fill="#EFEB00"/>
<path d="M166.653 47.9745L171.08 51.1442L167.771 55.53L163.344 52.3603L166.653 47.9745Z" fill="#EFEB00"/>
</g>
</g>
<defs>
<clipPath id="clip0_5_13">
<rect width="185" height="83" fill="white" transform="translate(0 -7)"/>
</clipPath>
</defs>
</svg>
